<?xml version="1.0"?>
<svg xmlns="http://www.w3.org/2000/svg" viewBox="0 0 472.35 102.96">
  <defs>
    <linearGradient id="g" x1="0" y1="0" x2="472.35" y2="0" gradientUnits="userSpaceOnUse">
      <stop offset="0" stop-color="#BD5968"></stop>
      <stop offset="0.10" stop-color="#E48182"></stop>
      <stop offset="0.17" stop-color="#F69F8C"></stop>
      <stop offset="0.34" stop-color="#E0A077"></stop>
      <stop offset="0.52" stop-color="#F3A289"></stop>
      <stop offset="0.64" stop-color="#FA9C8F"></stop>
      <stop offset="0.80" stop-color="#E58182"></stop>
      <stop offset="0.90" stop-color="#CB6670"></stop>
      <stop offset="1" stop-color="#B85767"></stop>
    </linearGradient>
  </defs>
  <g fill="url(#g)" fill-rule="evenodd">
    <path d="M64.71,30.47c1.46-2.49,2.81-4.87,4.23-7.21,3.94-6.46,9.77-10.27,17.17-11.31,13.6-1.91,25.44,6.44,28.27,19.86,1.66,7.88-.43,14.89-5.75,20.94-8.03,9.12-16.07,18.23-24.07,27.38-2.8,3.2-5.73,6.19-9.52,8.28-7.95,4.38-15.58,3.59-22.95-1.26-1.62-1.07-3.16-2.37-4.44-3.82-9.26-10.44-18.58-20.83-27.61-31.46-11.77-13.86-3.53-35.97,14.71-39.47,9.94-1.91,18.29,1.29,24.59,9.25,1.81,2.28,3.06,5,4.57,7.52.24.4.48.79.8,1.3ZM84.3,65.47c.11-.1.29-.24.43-.4,5.16-5.9,10.35-11.78,15.46-17.72,1.32-1.53,2.63-3.17,3.51-4.97,2.71-5.54,1.19-12.2-3.64-16.85-6.73-6.49-18.12-4.92-22.83,3.14-2.07,3.55-4.14,7.11-6.26,10.63-.44.74-.4,1.26.01,2,4.43,8.04,9.88,15.52,13.31,24.16ZM45.03,65.59c1.06-2.32,1.95-4.71,3.19-6.9,3.31-5.86,6.77-11.65,10.2-17.44.42-.71.39-1.22-.02-1.9-1.99-3.33-3.94-6.68-5.89-10.03-2.96-5.11-7.46-7.65-13.3-7.5-6.17.16-10.66,3.26-13.25,8.8-2.52,5.39-1.99,10.61,1.92,15.26,3.68,4.38,7.42,8.71,11.17,13.03,2,2.3,4.06,4.55,5.97,6.69ZM64.74,50.21c-.18.23-.32.37-.41.53-2.71,4.63-5.45,9.23-8.1,13.89-1.33,2.33-1.83,4.88-1.5,7.58.48,3.98,3.76,7.69,7.67,8.59,4.24.98,8.55-.62,10.79-4.13,2.54-3.98,2.13-8.04-.02-12.02-1.28-2.37-2.71-4.67-4.07-7-1.44-2.46-2.87-4.92-4.35-7.45Z"></path>
    <path d="M215.14,43.01V11.55h14.85v78.32h-14.85v-33.44h-36.41v33.44h-14.85V11.55h14.85v31.46h36.41ZM295.33,62.48v3.3h-42.46c.51,4.84,2.03,8.49,4.56,10.95,2.53,2.46,5.92,3.68,10.17,3.68,6.31,0,10.63-2.71,12.98-8.14h13.31c-1.47,5.79-4.55,10.39-9.24,13.8-4.69,3.41-10.41,5.12-17.16,5.12-8.43,0-15.25-2.71-20.46-8.14-5.21-5.43-7.81-12.61-7.81-21.56s2.57-16.13,7.7-21.56c5.21-5.43,11.99-8.14,20.35-8.14s15.4,2.82,20.46,8.47c5.06,5.65,7.59,13.05,7.59,22.22ZM267.17,42.57c-8.14,0-12.87,4.51-14.19,13.53h28.49c-.59-4.18-2.13-7.48-4.62-9.9-2.49-2.42-5.72-3.63-9.68-3.63ZM354.73,89.87h-13.86c-.66-1.17-1.17-3.48-1.54-6.93-3.81,5.5-9.9,8.25-18.26,8.25-6.23,0-11.2-1.5-14.91-4.51-3.7-3.01-5.56-7.19-5.56-12.54,0-10.34,7.26-16.24,21.78-17.71l8.58-.77c2.86-.37,4.91-1.04,6.16-2.04,1.25-.99,1.87-2.47,1.87-4.46,0-2.42-.79-4.2-2.36-5.33-1.58-1.14-4.24-1.71-7.98-1.71-4.03,0-6.93.68-8.69,2.04-1.76,1.36-2.79,3.69-3.08,6.99h-13.64c.81-12.91,9.31-19.36,25.52-19.36s23.65,5.68,23.65,17.05v30.25c0,4.99.77,8.58,2.31,10.78ZM324.37,81.29c4.33,0,7.85-1.19,10.56-3.58,2.71-2.38,4.07-5.81,4.07-10.29v-5.17c-1.32,1.17-3.48,1.94-6.49,2.31l-7.48.88c-3.67.44-6.29,1.3-7.87,2.58-1.58,1.28-2.36,3.13-2.36,5.55s.82,4.31,2.47,5.67c1.65,1.36,4.02,2.04,7.1,2.04ZM393.34,32.23c1.25,0,2.38.07,3.41.22v12.76h-3.52c-5.28,0-9.33,1.34-12.15,4.02-2.82,2.68-4.23,6.62-4.23,11.82v28.82h-13.86v-56.76h13.42v10.12c3.15-7.33,8.8-11,16.94-11ZM425.35,91.41c-16.57,0-25.23-6.53-25.96-19.58h13.53c.37,3.52,1.52,6.01,3.47,7.48,1.94,1.47,5,2.2,9.19,2.2,7.48,0,11.22-2.27,11.22-6.82,0-2.05-.81-3.63-2.42-4.73-1.61-1.1-4.51-2.02-8.69-2.75l-6.49-1.1c-12.39-2.05-18.59-7.77-18.59-17.16,0-5.35,2.05-9.55,6.16-12.59,4.11-3.04,9.9-4.57,17.38-4.57,16.21,0,24.57,6.42,25.08,19.25h-13.09c-.15-3.37-1.21-5.78-3.19-7.21s-4.91-2.14-8.8-2.14c-6.6,0-9.9,2.2-9.9,6.6,0,1.91.73,3.39,2.2,4.46,1.47,1.06,3.89,1.89,7.26,2.47l7.15,1.1c6.89,1.25,11.9,3.23,15.02,5.94,3.12,2.71,4.67,6.49,4.67,11.33,0,5.72-2.2,10.12-6.6,13.2-4.4,3.08-10.6,4.62-18.59,4.62Z"></path>
  </g>
</svg>